<svg xmlns="http://www.w3.org/2000/svg" width="238.37" height="35" viewBox="0 0 238.37 35"><rect class="svg__rect" x="0" y="0" width="54.760000000000005" height="35" fill="#762C80"/><rect class="svg__rect" x="52.760000000000005" y="0" width="185.61" height="35" fill="#390040"/><path class="svg__text" d="M14.08 19.16L14.08 19.16L14.08 13.47L15.56 13.47L15.56 19.18Q15.56 20.03 15.99 20.48Q16.43 20.93 17.27 20.93L17.27 20.93Q18.98 20.93 18.98 19.13L18.98 19.13L18.98 13.47L20.46 13.47L20.46 19.17Q20.46 20.53 19.59 21.32Q18.72 22.12 17.27 22.12L17.27 22.12Q15.81 22.12 14.94 21.33Q14.08 20.55 14.08 19.16ZM24.59 19.42L24.59 19.42L26.08 19.42Q26.08 20.15 26.56 20.55Q27.04 20.95 27.93 20.95L27.93 20.95Q28.71 20.95 29.10 20.63Q29.49 20.32 29.49 19.80L29.49 19.80Q29.49 19.24 29.09 18.94Q28.70 18.63 27.66 18.32Q26.63 18.01 26.02 17.63L26.02 17.63Q24.86 16.90 24.86 15.72L24.86 15.72Q24.86 14.69 25.70 14.02Q26.54 13.35 27.88 13.35L27.88 13.35Q28.77 13.35 29.47 13.68Q30.17 14.01 30.56 14.61Q30.96 15.22 30.96 15.96L30.96 15.96L29.49 15.96Q29.49 15.29 29.07 14.91Q28.65 14.54 27.87 14.54L27.87 14.54Q27.14 14.54 26.74 14.85Q26.34 15.16 26.34 15.71L26.34 15.71Q26.34 16.18 26.77 16.50Q27.21 16.81 28.20 17.10Q29.20 17.40 29.80 17.78Q30.41 18.16 30.69 18.65Q30.97 19.13 30.97 19.79L30.97 19.79Q30.97 20.86 30.15 21.49Q29.33 22.12 27.93 22.12L27.93 22.12Q27.01 22.12 26.23 21.77Q25.46 21.43 25.02 20.83Q24.59 20.22 24.59 19.42ZM40.84 22L35.26 22L35.26 13.47L40.80 13.47L40.80 14.66L36.74 14.66L36.74 17.02L40.24 17.02L40.24 18.19L36.74 18.19L36.74 20.82L40.84 20.82L40.84 22Z" fill="#FFFFFF"/><path class="svg__text" d="M69.15 22L66.95 22L66.95 13.60L68.90 13.60L71.86 18.45L74.74 13.60L76.69 13.60L76.72 22L74.54 22L74.51 17.55L72.35 21.17L71.30 21.17L69.15 17.67L69.15 22ZM81.81 18.26L81.81 18.26L81.81 13.60L84.19 13.60L84.19 18.19Q84.19 20.20 85.78 20.20L85.78 20.20Q87.36 20.20 87.36 18.19L87.36 18.19L87.36 13.60L89.71 13.60L89.71 18.26Q89.71 20.13 88.67 21.15Q87.63 22.17 85.76 22.17L85.76 22.17Q83.88 22.17 82.84 21.15Q81.81 20.13 81.81 18.26ZM97.17 22L94.79 22L94.79 13.60L97.17 13.60L97.17 22ZM105.58 19.46L102.08 19.46L102.08 17.71L105.58 17.71L105.58 19.46ZM114.46 22L110.48 22L110.48 13.60L114.46 13.60Q115.84 13.60 116.90 14.12Q117.97 14.63 118.56 15.58Q119.15 16.53 119.15 17.80L119.15 17.80Q119.15 19.07 118.56 20.02Q117.97 20.97 116.90 21.48Q115.84 22 114.46 22L114.46 22ZM112.86 15.50L112.86 20.10L114.36 20.10Q115.44 20.10 116.09 19.49Q116.75 18.88 116.75 17.80L116.75 17.80Q116.75 16.72 116.09 16.11Q115.44 15.50 114.36 15.50L114.36 15.50L112.86 15.50ZM125.30 22L122.87 22L126.58 13.60L128.92 13.60L132.64 22L130.17 22L129.51 20.37L125.96 20.37L125.30 22ZM127.73 15.93L126.65 18.61L128.81 18.61L127.73 15.93ZM138.58 15.48L136.00 15.48L136.00 13.60L143.52 13.60L143.52 15.48L140.96 15.48L140.96 22L138.58 22L138.58 15.48ZM149.31 22L146.89 22L150.60 13.60L152.94 13.60L156.65 22L154.19 22L153.53 20.37L149.98 20.37L149.31 22ZM151.75 15.93L150.67 18.61L152.83 18.61L151.75 15.93ZM162.60 15.48L160.02 15.48L160.02 13.60L167.54 13.60L167.54 15.48L164.98 15.48L164.98 22L162.60 22L162.60 15.48ZM173.33 22L170.90 22L174.61 13.60L176.96 13.60L180.67 22L178.21 22L177.54 20.37L173.99 20.37L173.33 22ZM175.77 15.93L174.68 18.61L176.85 18.61L175.77 15.93ZM189.37 22L184.83 22L184.83 13.60L189.13 13.60Q190.73 13.60 191.57 14.19Q192.41 14.79 192.41 15.79L192.41 15.79Q192.41 16.39 192.12 16.87Q191.82 17.34 191.28 17.62L191.28 17.62Q192.00 17.87 192.41 18.41Q192.82 18.94 192.82 19.70L192.82 19.70Q192.82 20.80 191.93 21.40Q191.04 22 189.37 22L189.37 22ZM187.18 18.58L187.18 20.28L189.17 20.28Q190.42 20.28 190.42 19.43L190.42 19.43Q190.42 18.58 189.17 18.58L189.17 18.58L187.18 18.58ZM187.18 15.31L187.18 16.94L188.81 16.94Q190.01 16.94 190.01 16.12L190.01 16.12Q190.01 15.31 188.81 15.31L188.81 15.31L187.18 15.31ZM203.92 22L197.54 22L197.54 13.60L199.91 13.60L199.91 20.11L203.92 20.11L203.92 22ZM215.08 22L208.34 22L208.34 13.60L214.93 13.60L214.93 15.44L210.70 15.44L210.70 16.85L214.43 16.85L214.43 18.63L210.70 18.63L210.70 20.17L215.08 20.17L215.08 22ZM219.30 21.24L219.30 21.24L220.08 19.49Q220.65 19.86 221.39 20.09Q222.13 20.32 222.85 20.32L222.85 20.32Q224.22 20.32 224.23 19.64L224.23 19.64Q224.23 19.28 223.84 19.11Q223.45 18.93 222.58 18.74L222.58 18.74Q221.63 18.53 220.99 18.30Q220.36 18.06 219.90 17.55Q219.45 17.03 219.45 16.16L219.45 16.16Q219.45 15.39 219.87 14.77Q220.29 14.15 221.12 13.79Q221.96 13.43 223.16 13.43L223.16 13.43Q223.99 13.43 224.80 13.62Q225.60 13.80 226.22 14.17L226.22 14.17L225.48 15.93Q224.28 15.28 223.15 15.28L223.15 15.28Q222.44 15.28 222.12 15.49Q221.80 15.70 221.80 16.04L221.80 16.04Q221.80 16.37 222.18 16.54Q222.57 16.71 223.42 16.89L223.42 16.89Q224.38 17.10 225.01 17.33Q225.64 17.56 226.10 18.07Q226.56 18.58 226.56 19.46L226.56 19.46Q226.56 20.21 226.14 20.83Q225.73 21.44 224.88 21.80Q224.04 22.17 222.84 22.17L222.84 22.17Q221.82 22.17 220.86 21.92Q219.90 21.67 219.30 21.24Z" fill="#FFFFFF" x="65.76"/></svg>