<svg xmlns="http://www.w3.org/2000/svg" width="177.74" height="35" viewBox="0 0 177.74 35"><rect class="svg__rect" x="0" y="0" width="54.760000000000005" height="35" fill="#DC9596"/><rect class="svg__rect" x="52.760000000000005" y="0" width="124.98" height="35" fill="#B66465"/><path class="svg__text" d="M14.08 19.16L14.08 19.16L14.08 13.47L15.56 13.47L15.56 19.18Q15.56 20.03 15.99 20.48Q16.43 20.93 17.27 20.93L17.27 20.93Q18.98 20.93 18.98 19.13L18.98 19.13L18.98 13.47L20.46 13.47L20.46 19.17Q20.46 20.53 19.59 21.32Q18.72 22.12 17.27 22.12L17.27 22.12Q15.81 22.12 14.94 21.33Q14.08 20.55 14.08 19.16ZM24.59 19.42L24.59 19.42L26.08 19.42Q26.08 20.15 26.56 20.55Q27.04 20.95 27.93 20.95L27.93 20.95Q28.71 20.95 29.10 20.63Q29.49 20.32 29.49 19.80L29.49 19.80Q29.49 19.24 29.09 18.94Q28.70 18.63 27.66 18.32Q26.63 18.01 26.02 17.63L26.02 17.63Q24.86 16.90 24.86 15.72L24.86 15.72Q24.86 14.69 25.70 14.02Q26.54 13.35 27.88 13.35L27.88 13.35Q28.77 13.35 29.47 13.68Q30.17 14.01 30.56 14.61Q30.96 15.22 30.96 15.96L30.96 15.96L29.49 15.96Q29.49 15.29 29.07 14.91Q28.65 14.54 27.87 14.54L27.87 14.54Q27.14 14.54 26.74 14.85Q26.34 15.16 26.34 15.71L26.34 15.71Q26.34 16.18 26.77 16.50Q27.21 16.81 28.20 17.10Q29.20 17.40 29.80 17.78Q30.41 18.16 30.69 18.65Q30.97 19.13 30.97 19.79L30.97 19.79Q30.97 20.86 30.15 21.49Q29.33 22.12 27.93 22.12L27.93 22.12Q27.01 22.12 26.23 21.77Q25.46 21.43 25.02 20.83Q24.59 20.22 24.59 19.42ZM40.84 22L35.26 22L35.26 13.47L40.80 13.47L40.80 14.66L36.74 14.66L36.74 17.02L40.24 17.02L40.24 18.19L36.74 18.19L36.74 20.82L40.84 20.82L40.84 22Z" fill="#FFFFFF"/><path class="svg__text" d="M66.52 17.80L66.52 17.80Q66.52 16.54 67.12 15.54Q67.72 14.55 68.77 13.99Q69.82 13.43 71.14 13.43L71.14 13.43Q72.29 13.43 73.21 13.84Q74.14 14.25 74.75 15.02L74.75 15.02L73.24 16.39Q72.43 15.40 71.26 15.40L71.26 15.40Q70.57 15.40 70.04 15.70Q69.51 16 69.21 16.54Q68.92 17.09 68.92 17.80L68.92 17.80Q68.92 18.51 69.21 19.05Q69.51 19.60 70.04 19.90Q70.57 20.20 71.26 20.20L71.26 20.20Q72.43 20.20 73.24 19.22L73.24 19.22L74.75 20.58Q74.14 21.35 73.22 21.76Q72.29 22.17 71.14 22.17L71.14 22.17Q69.82 22.17 68.77 21.61Q67.72 21.05 67.12 20.05Q66.52 19.06 66.52 17.80ZM81.67 22L79.29 22L79.29 13.60L83.13 13.60Q84.27 13.60 85.11 13.98Q85.95 14.35 86.41 15.06Q86.86 15.76 86.86 16.71L86.86 16.71Q86.86 17.62 86.44 18.30Q86.01 18.98 85.22 19.36L85.22 19.36L87.03 22L84.48 22L82.96 19.77L81.67 19.77L81.67 22ZM81.67 15.47L81.67 17.93L82.98 17.93Q83.72 17.93 84.09 17.61Q84.46 17.29 84.46 16.71L84.46 16.71Q84.46 16.12 84.09 15.79Q83.72 15.47 82.98 15.47L82.98 15.47L81.67 15.47ZM93.78 18.95L90.57 13.60L93.08 13.60L95.07 16.94L97.07 13.60L99.37 13.60L96.15 18.99L96.15 22L93.78 22L93.78 18.95ZM105.83 22L103.45 22L103.45 13.60L107.30 13.60Q108.43 13.60 109.27 13.98Q110.11 14.35 110.57 15.06Q111.03 15.76 111.03 16.71L111.03 16.71Q111.03 17.66 110.57 18.35Q110.11 19.05 109.27 19.42Q108.43 19.80 107.30 19.80L107.30 19.80L105.83 19.80L105.83 22ZM105.83 15.47L105.83 17.93L107.15 17.93Q107.88 17.93 108.25 17.61Q108.63 17.29 108.63 16.71L108.63 16.71Q108.63 16.12 108.25 15.80Q107.88 15.47 107.15 15.47L107.15 15.47L105.83 15.47ZM117.57 15.48L114.99 15.48L114.99 13.60L122.51 13.60L122.51 15.48L119.95 15.48L119.95 22L117.57 22L117.57 15.48ZM126.46 17.80L126.46 17.80Q126.46 16.55 127.06 15.55Q127.66 14.56 128.73 14.00Q129.79 13.43 131.12 13.43L131.12 13.43Q132.45 13.43 133.51 14.00Q134.58 14.56 135.18 15.55Q135.79 16.55 135.79 17.80L135.79 17.80Q135.79 19.05 135.18 20.04Q134.58 21.04 133.52 21.60Q132.46 22.17 131.12 22.17L131.12 22.17Q129.79 22.17 128.73 21.60Q127.66 21.04 127.06 20.04Q126.46 19.05 126.46 17.80ZM128.85 17.80L128.85 17.80Q128.85 18.51 129.15 19.05Q129.46 19.60 129.97 19.90Q130.49 20.20 131.12 20.20L131.12 20.20Q131.76 20.20 132.27 19.90Q132.79 19.60 133.09 19.05Q133.39 18.51 133.39 17.80L133.39 17.80Q133.39 17.09 133.09 16.54Q132.79 16 132.27 15.70Q131.76 15.40 131.12 15.40L131.12 15.40Q130.48 15.40 129.97 15.70Q129.46 16 129.15 16.54Q128.85 17.09 128.85 17.80ZM143.76 19.46L140.25 19.46L140.25 17.71L143.76 17.71L143.76 19.46ZM147.58 20.93L147.58 20.93L148.87 19.40Q149.54 20.27 150.32 20.27L150.32 20.27Q150.32 20.27 150.33 20.27L150.33 20.27Q150.84 20.27 151.11 19.96Q151.38 19.65 151.38 19.05L151.38 19.05L151.38 15.44L148.48 15.44L148.48 13.60L153.74 13.60L153.74 18.91Q153.74 20.54 152.91 21.36Q152.09 22.17 150.50 22.17L150.50 22.17Q149.57 22.17 148.82 21.85Q148.06 21.53 147.58 20.93ZM158.24 21.24L158.24 21.24L159.02 19.49Q159.58 19.86 160.32 20.09Q161.07 20.32 161.79 20.32L161.79 20.32Q163.15 20.32 163.16 19.64L163.16 19.64Q163.16 19.28 162.77 19.11Q162.38 18.93 161.51 18.74L161.51 18.74Q160.56 18.53 159.93 18.30Q159.29 18.06 158.84 17.55Q158.38 17.03 158.38 16.16L158.38 16.16Q158.38 15.39 158.80 14.77Q159.22 14.15 160.06 13.79Q160.89 13.43 162.10 13.43L162.10 13.43Q162.92 13.43 163.73 13.62Q164.54 13.80 165.15 14.17L165.15 14.17L164.42 15.93Q163.22 15.28 162.09 15.28L162.09 15.28Q161.38 15.28 161.06 15.49Q160.73 15.70 160.73 16.04L160.73 16.04Q160.73 16.37 161.12 16.54Q161.50 16.71 162.35 16.89L162.35 16.89Q163.31 17.10 163.94 17.33Q164.57 17.56 165.03 18.07Q165.50 18.58 165.50 19.46L165.50 19.46Q165.50 20.21 165.08 20.83Q164.66 21.44 163.82 21.80Q162.98 22.17 161.78 22.17L161.78 22.17Q160.76 22.17 159.80 21.92Q158.83 21.67 158.24 21.24Z" fill="#FFFFFF" x="65.76"/></svg>