<svg xmlns="http://www.w3.org/2000/svg" width="217.26" height="35" viewBox="0 0 217.26 35"><rect class="svg__rect" x="0" y="0" width="54.760000000000005" height="35" fill="#307770"/><rect class="svg__rect" x="52.760000000000005" y="0" width="164.5" height="35" fill="#204E4A"/><path class="svg__text" d="M14.08 19.16L14.08 19.16L14.08 13.47L15.56 13.47L15.56 19.18Q15.56 20.03 15.99 20.48Q16.43 20.93 17.27 20.93L17.27 20.93Q18.98 20.93 18.98 19.13L18.98 19.13L18.98 13.47L20.46 13.47L20.46 19.17Q20.46 20.53 19.59 21.32Q18.72 22.12 17.27 22.12L17.27 22.12Q15.81 22.12 14.94 21.33Q14.08 20.55 14.08 19.16ZM24.59 19.42L24.59 19.42L26.08 19.42Q26.08 20.15 26.56 20.55Q27.04 20.95 27.93 20.95L27.93 20.95Q28.71 20.95 29.10 20.63Q29.49 20.32 29.49 19.80L29.49 19.80Q29.49 19.24 29.09 18.94Q28.70 18.63 27.66 18.32Q26.63 18.01 26.02 17.63L26.02 17.63Q24.86 16.90 24.86 15.72L24.86 15.72Q24.86 14.69 25.70 14.02Q26.54 13.35 27.88 13.35L27.88 13.35Q28.77 13.35 29.47 13.68Q30.17 14.01 30.56 14.61Q30.96 15.22 30.96 15.96L30.96 15.96L29.49 15.96Q29.49 15.29 29.07 14.91Q28.65 14.54 27.87 14.54L27.87 14.54Q27.14 14.54 26.74 14.85Q26.34 15.16 26.34 15.71L26.34 15.71Q26.34 16.18 26.77 16.50Q27.21 16.81 28.20 17.10Q29.20 17.40 29.80 17.78Q30.41 18.16 30.69 18.65Q30.97 19.13 30.97 19.79L30.97 19.79Q30.97 20.86 30.15 21.49Q29.33 22.12 27.93 22.12L27.93 22.12Q27.01 22.12 26.23 21.77Q25.46 21.43 25.02 20.83Q24.59 20.22 24.59 19.42ZM40.84 22L35.26 22L35.26 13.47L40.80 13.47L40.80 14.66L36.74 14.66L36.74 17.02L40.24 17.02L40.24 18.19L36.74 18.19L36.74 20.82L40.84 20.82L40.84 22Z" fill="#FFFFFF"/><path class="svg__text" d="M69.33 22L66.95 22L66.95 13.60L70.79 13.60Q71.93 13.60 72.77 13.98Q73.61 14.35 74.07 15.06Q74.52 15.76 74.52 16.71L74.52 16.71Q74.52 17.62 74.10 18.30Q73.67 18.98 72.88 19.36L72.88 19.36L74.69 22L72.15 22L70.62 19.77L69.33 19.77L69.33 22ZM69.33 15.47L69.33 17.93L70.65 17.93Q71.38 17.93 71.75 17.61Q72.12 17.29 72.12 16.71L72.12 16.71Q72.12 16.12 71.75 15.79Q71.38 15.47 70.65 15.47L70.65 15.47L69.33 15.47ZM81.69 22L79.31 22L79.31 13.60L81.69 13.60L81.69 16.76L84.93 16.76L84.93 13.60L87.30 13.60L87.30 22L84.93 22L84.93 18.72L81.69 18.72L81.69 22ZM96.44 22L92.47 22L92.47 13.60L96.44 13.60Q97.82 13.60 98.89 14.12Q99.95 14.63 100.54 15.58Q101.13 16.53 101.13 17.80L101.13 17.80Q101.13 19.07 100.54 20.02Q99.95 20.97 98.89 21.48Q97.82 22 96.44 22L96.44 22ZM94.84 15.50L94.84 20.10L96.34 20.10Q97.42 20.10 98.08 19.49Q98.73 18.88 98.73 17.80L98.73 17.80Q98.73 16.72 98.08 16.11Q97.42 15.50 96.34 15.50L96.34 15.50L94.84 15.50ZM107.28 22L104.85 22L108.56 13.60L110.90 13.60L114.62 22L112.15 22L111.49 20.37L107.94 20.37L107.28 22ZM109.72 15.93L108.63 18.61L110.79 18.61L109.72 15.93ZM120.57 15.48L117.98 15.48L117.98 13.60L125.51 13.60L125.51 15.48L122.94 15.48L122.94 22L120.57 22L120.57 15.48ZM136.62 22L129.88 22L129.88 13.60L136.47 13.60L136.47 15.44L132.23 15.44L132.23 16.85L135.97 16.85L135.97 18.63L132.23 18.63L132.23 20.17L136.62 20.17L136.62 22ZM143.81 22L141.43 22L141.43 13.60L145.27 13.60Q146.41 13.60 147.25 13.98Q148.09 14.35 148.55 15.06Q149.00 15.76 149.00 16.71L149.00 16.71Q149.00 17.66 148.55 18.35Q148.09 19.05 147.25 19.42Q146.41 19.80 145.27 19.80L145.27 19.80L143.81 19.80L143.81 22ZM143.81 15.47L143.81 17.93L145.12 17.93Q145.86 17.93 146.23 17.61Q146.60 17.29 146.60 16.71L146.60 16.71Q146.60 16.12 146.23 15.80Q145.86 15.47 145.12 15.47L145.12 15.47L143.81 15.47ZM156.13 22L153.75 22L153.75 13.60L156.13 13.60L156.13 22ZM160.88 17.80L160.88 17.80Q160.88 16.54 161.48 15.54Q162.07 14.55 163.13 13.99Q164.18 13.43 165.50 13.43L165.50 13.43Q166.65 13.43 167.57 13.84Q168.50 14.25 169.11 15.02L169.11 15.02L167.60 16.39Q166.79 15.40 165.62 15.40L165.62 15.40Q164.93 15.40 164.40 15.70Q163.87 16 163.57 16.54Q163.28 17.09 163.28 17.80L163.28 17.80Q163.28 18.51 163.57 19.05Q163.87 19.60 164.40 19.90Q164.93 20.20 165.62 20.20L165.62 20.20Q166.79 20.20 167.60 19.22L167.60 19.22L169.11 20.58Q168.50 21.35 167.58 21.76Q166.65 22.17 165.50 22.17L165.50 22.17Q164.18 22.17 163.13 21.61Q162.07 21.05 161.48 20.05Q160.88 19.06 160.88 17.80ZM176.00 22L173.65 22L173.65 13.60L176.00 13.60L176.00 17.09L179.25 13.60L181.87 13.60L178.44 17.32L182.05 22L179.29 22L176.89 18.95L176.00 19.90L176.00 22ZM192.90 22L186.16 22L186.16 13.60L192.75 13.60L192.75 15.44L188.51 15.44L188.51 16.85L192.24 16.85L192.24 18.63L188.51 18.63L188.51 20.17L192.90 20.17L192.90 22ZM200.08 22L197.71 22L197.71 13.60L201.55 13.60Q202.69 13.60 203.53 13.98Q204.37 14.35 204.82 15.06Q205.28 15.76 205.28 16.71L205.28 16.71Q205.28 17.62 204.85 18.30Q204.43 18.98 203.64 19.36L203.64 19.36L205.45 22L202.90 22L201.38 19.77L200.08 19.77L200.08 22ZM200.08 15.47L200.08 17.93L201.40 17.93Q202.14 17.93 202.51 17.61Q202.88 17.29 202.88 16.71L202.88 16.71Q202.88 16.12 202.51 15.79Q202.14 15.47 201.40 15.47L201.40 15.47L200.08 15.47Z" fill="#FFFFFF" x="65.76"/></svg>