<svg xmlns="http://www.w3.org/2000/svg" width="179.53" height="35" viewBox="0 0 179.53 35"><rect class="svg__rect" x="0" y="0" width="54.760000000000005" height="35" fill="#84BCDA"/><rect class="svg__rect" x="52.760000000000005" y="0" width="126.77" height="35" fill="#067BC2"/><path class="svg__text" d="M14.08 19.16L14.08 19.16L14.08 13.47L15.56 13.47L15.56 19.18Q15.56 20.03 15.99 20.48Q16.43 20.93 17.27 20.93L17.27 20.93Q18.98 20.93 18.98 19.13L18.98 19.13L18.98 13.47L20.46 13.47L20.46 19.17Q20.46 20.53 19.59 21.32Q18.72 22.12 17.27 22.12L17.27 22.12Q15.81 22.12 14.94 21.33Q14.08 20.55 14.08 19.16ZM24.59 19.42L24.59 19.42L26.08 19.42Q26.08 20.15 26.56 20.55Q27.04 20.95 27.93 20.95L27.93 20.95Q28.71 20.95 29.10 20.63Q29.49 20.32 29.49 19.80L29.49 19.80Q29.49 19.24 29.09 18.94Q28.70 18.63 27.66 18.32Q26.63 18.01 26.02 17.63L26.02 17.63Q24.86 16.90 24.86 15.72L24.86 15.72Q24.86 14.69 25.70 14.02Q26.54 13.35 27.88 13.35L27.88 13.35Q28.77 13.35 29.47 13.68Q30.17 14.01 30.56 14.61Q30.96 15.22 30.96 15.96L30.96 15.96L29.49 15.96Q29.49 15.29 29.07 14.91Q28.65 14.54 27.87 14.54L27.87 14.54Q27.14 14.54 26.74 14.85Q26.34 15.16 26.34 15.71L26.34 15.71Q26.34 16.18 26.77 16.50Q27.21 16.81 28.20 17.10Q29.20 17.40 29.80 17.78Q30.41 18.16 30.69 18.65Q30.97 19.13 30.97 19.79L30.97 19.79Q30.97 20.86 30.15 21.49Q29.33 22.12 27.93 22.12L27.93 22.12Q27.01 22.12 26.23 21.77Q25.46 21.43 25.02 20.83Q24.59 20.22 24.59 19.42ZM40.84 22L35.26 22L35.26 13.47L40.80 13.47L40.80 14.66L36.74 14.66L36.74 17.02L40.24 17.02L40.24 18.19L36.74 18.19L36.74 20.82L40.84 20.82L40.84 22Z" fill="#FFFFFF"/><path class="svg__text" d="M69.33 22L66.95 22L66.95 13.60L70.79 13.60Q71.93 13.60 72.77 13.98Q73.61 14.35 74.07 15.06Q74.52 15.76 74.52 16.71L74.52 16.71Q74.52 17.66 74.07 18.35Q73.61 19.05 72.77 19.42Q71.93 19.80 70.79 19.80L70.79 19.80L69.33 19.80L69.33 22ZM69.33 15.47L69.33 17.93L70.65 17.93Q71.38 17.93 71.75 17.61Q72.12 17.29 72.12 16.71L72.12 16.71Q72.12 16.12 71.75 15.80Q71.38 15.47 70.65 15.47L70.65 15.47L69.33 15.47ZM81.65 22L79.28 22L79.28 13.60L83.12 13.60Q84.26 13.60 85.10 13.98Q85.94 14.35 86.40 15.06Q86.85 15.76 86.85 16.71L86.85 16.71Q86.85 17.62 86.42 18.30Q86.00 18.98 85.21 19.36L85.21 19.36L87.02 22L84.47 22L82.95 19.77L81.65 19.77L81.65 22ZM81.65 15.47L81.65 17.93L82.97 17.93Q83.71 17.93 84.08 17.61Q84.45 17.29 84.45 16.71L84.45 16.71Q84.45 16.12 84.08 15.79Q83.71 15.47 82.97 15.47L82.97 15.47L81.65 15.47ZM91.21 17.80L91.21 17.80Q91.21 16.55 91.82 15.55Q92.42 14.56 93.48 14.00Q94.55 13.43 95.88 13.43L95.88 13.43Q97.21 13.43 98.27 14.00Q99.33 14.56 99.94 15.55Q100.55 16.55 100.55 17.80L100.55 17.80Q100.55 19.05 99.94 20.04Q99.33 21.04 98.27 21.60Q97.21 22.17 95.88 22.17L95.88 22.17Q94.55 22.17 93.48 21.60Q92.42 21.04 91.82 20.04Q91.21 19.05 91.21 17.80ZM93.61 17.80L93.61 17.80Q93.61 18.51 93.91 19.05Q94.21 19.60 94.73 19.90Q95.24 20.20 95.88 20.20L95.88 20.20Q96.51 20.20 97.03 19.90Q97.55 19.60 97.84 19.05Q98.14 18.51 98.14 17.80L98.14 17.80Q98.14 17.09 97.84 16.54Q97.55 16 97.03 15.70Q96.51 15.40 95.88 15.40L95.88 15.40Q95.24 15.40 94.72 15.70Q94.21 16 93.91 16.54Q93.61 17.09 93.61 17.80ZM107.65 22L105.27 22L105.27 13.60L109.12 13.60Q110.25 13.60 111.10 13.98Q111.94 14.35 112.39 15.06Q112.85 15.76 112.85 16.71L112.85 16.71Q112.85 17.66 112.39 18.35Q111.94 19.05 111.10 19.42Q110.25 19.80 109.12 19.80L109.12 19.80L107.65 19.80L107.65 22ZM107.65 15.47L107.65 17.93L108.97 17.93Q109.70 17.93 110.08 17.61Q110.45 17.29 110.45 16.71L110.45 16.71Q110.45 16.12 110.08 15.80Q109.70 15.47 108.97 15.47L108.97 15.47L107.65 15.47ZM120.84 19.46L117.34 19.46L117.34 17.71L120.84 17.71L120.84 19.46ZM127.53 15.48L124.95 15.48L124.95 13.60L132.47 13.60L132.47 15.48L129.91 15.48L129.91 22L127.53 22L127.53 15.48ZM138.97 18.95L135.77 13.60L138.27 13.60L140.27 16.94L142.26 13.60L144.56 13.60L141.34 18.99L141.34 22L138.97 22L138.97 18.95ZM151.02 22L148.65 22L148.65 13.60L152.49 13.60Q153.63 13.60 154.47 13.98Q155.31 14.35 155.76 15.06Q156.22 15.76 156.22 16.71L156.22 16.71Q156.22 17.66 155.76 18.35Q155.31 19.05 154.47 19.42Q153.63 19.80 152.49 19.80L152.49 19.80L151.02 19.80L151.02 22ZM151.02 15.47L151.02 17.93L152.34 17.93Q153.07 17.93 153.45 17.61Q153.82 17.29 153.82 16.71L153.82 16.71Q153.82 16.12 153.45 15.80Q153.07 15.47 152.34 15.47L152.34 15.47L151.02 15.47ZM167.72 22L160.97 22L160.97 13.60L167.57 13.60L167.57 15.44L163.33 15.44L163.33 16.85L167.06 16.85L167.06 18.63L163.33 18.63L163.33 20.17L167.72 20.17L167.72 22Z" fill="#FFFFFF" x="65.76"/></svg>