<svg xmlns="http://www.w3.org/2000/svg" width="279.89" height="35" viewBox="0 0 279.89 35"><rect class="svg__rect" x="0" y="0" width="54.760000000000005" height="35" fill="#D56062"/><rect class="svg__rect" x="52.760000000000005" y="0" width="227.13" height="35" fill="#BF3F41"/><path class="svg__text" d="M14.08 19.16L14.08 19.16L14.08 13.47L15.56 13.47L15.56 19.18Q15.56 20.03 15.99 20.48Q16.43 20.93 17.27 20.93L17.27 20.93Q18.98 20.93 18.98 19.13L18.98 19.13L18.98 13.47L20.46 13.47L20.46 19.17Q20.46 20.53 19.59 21.32Q18.72 22.12 17.27 22.12L17.27 22.12Q15.81 22.12 14.94 21.33Q14.08 20.55 14.08 19.16ZM24.59 19.42L24.59 19.42L26.08 19.42Q26.08 20.15 26.56 20.55Q27.04 20.95 27.93 20.95L27.93 20.95Q28.71 20.95 29.10 20.63Q29.49 20.32 29.49 19.80L29.49 19.80Q29.49 19.24 29.09 18.94Q28.70 18.63 27.66 18.32Q26.63 18.01 26.02 17.63L26.02 17.63Q24.86 16.90 24.86 15.72L24.86 15.72Q24.86 14.69 25.70 14.02Q26.54 13.35 27.88 13.35L27.88 13.35Q28.77 13.35 29.47 13.68Q30.17 14.01 30.56 14.61Q30.96 15.22 30.96 15.96L30.96 15.96L29.49 15.96Q29.49 15.29 29.07 14.91Q28.65 14.54 27.87 14.54L27.87 14.54Q27.14 14.54 26.74 14.85Q26.34 15.16 26.34 15.71L26.34 15.71Q26.34 16.18 26.77 16.50Q27.21 16.81 28.20 17.10Q29.20 17.40 29.80 17.78Q30.41 18.16 30.69 18.65Q30.97 19.13 30.97 19.79L30.97 19.79Q30.97 20.86 30.15 21.49Q29.33 22.12 27.93 22.12L27.93 22.12Q27.01 22.12 26.23 21.77Q25.46 21.43 25.02 20.83Q24.59 20.22 24.59 19.42ZM40.84 22L35.26 22L35.26 13.47L40.80 13.47L40.80 14.66L36.74 14.66L36.74 17.02L40.24 17.02L40.24 18.19L36.74 18.19L36.74 20.82L40.84 20.82L40.84 22Z" fill="#FFFFFF"/><path class="svg__text" d="M66.36 21.24L66.36 21.24L67.14 19.49Q67.70 19.86 68.45 20.09Q69.19 20.32 69.91 20.32L69.91 20.32Q71.28 20.32 71.28 19.64L71.28 19.64Q71.28 19.28 70.89 19.11Q70.50 18.93 69.64 18.74L69.64 18.74Q68.69 18.53 68.05 18.30Q67.42 18.06 66.96 17.55Q66.51 17.03 66.51 16.16L66.51 16.16Q66.51 15.39 66.93 14.77Q67.35 14.15 68.18 13.79Q69.02 13.43 70.22 13.43L70.22 13.43Q71.05 13.43 71.86 13.62Q72.66 13.80 73.28 14.17L73.28 14.17L72.54 15.93Q71.34 15.28 70.21 15.28L70.21 15.28Q69.50 15.28 69.18 15.49Q68.86 15.70 68.86 16.04L68.86 16.04Q68.86 16.37 69.24 16.54Q69.63 16.71 70.48 16.89L70.48 16.89Q71.44 17.10 72.07 17.33Q72.70 17.56 73.16 18.07Q73.62 18.58 73.62 19.46L73.62 19.46Q73.62 20.21 73.20 20.83Q72.78 21.44 71.94 21.80Q71.10 22.17 69.90 22.17L69.90 22.17Q68.88 22.17 67.92 21.92Q66.96 21.67 66.36 21.24ZM79.99 15.48L77.41 15.48L77.41 13.60L84.93 13.60L84.93 15.48L82.36 15.48L82.36 22L79.99 22L79.99 15.48ZM91.43 18.95L88.22 13.60L90.73 13.60L92.72 16.94L94.72 13.60L97.02 13.60L93.80 18.99L93.80 22L91.43 22L91.43 18.95ZM107.49 22L101.10 22L101.10 13.60L103.48 13.60L103.48 20.11L107.49 20.11L107.49 22ZM118.65 22L111.91 22L111.91 13.60L118.50 13.60L118.50 15.44L114.26 15.44L114.26 16.85L117.99 16.85L117.99 18.63L114.26 18.63L114.26 20.17L118.65 20.17L118.65 22ZM127.43 22L123.46 22L123.46 13.60L127.43 13.60Q128.81 13.60 129.88 14.12Q130.94 14.63 131.53 15.58Q132.12 16.53 132.12 17.80L132.12 17.80Q132.12 19.07 131.53 20.02Q130.94 20.97 129.88 21.48Q128.81 22 127.43 22L127.43 22ZM125.83 15.50L125.83 20.10L127.33 20.10Q128.41 20.10 129.07 19.49Q129.72 18.88 129.72 17.80L129.72 17.80Q129.72 16.72 129.07 16.11Q128.41 15.50 127.33 15.50L127.33 15.50L125.83 15.50ZM140.09 19.46L136.59 19.46L136.59 17.71L140.09 17.71L140.09 19.46ZM144.56 17.80L144.56 17.80Q144.56 16.54 145.16 15.54Q145.76 14.55 146.81 13.99Q147.86 13.43 149.18 13.43L149.18 13.43Q150.33 13.43 151.26 13.84Q152.18 14.25 152.79 15.02L152.79 15.02L151.28 16.39Q150.47 15.40 149.30 15.40L149.30 15.40Q148.62 15.40 148.08 15.70Q147.55 16 147.25 16.54Q146.96 17.09 146.96 17.80L146.96 17.80Q146.96 18.51 147.25 19.05Q147.55 19.60 148.08 19.90Q148.62 20.20 149.30 20.20L149.30 20.20Q150.47 20.20 151.28 19.22L151.28 19.22L152.79 20.58Q152.18 21.35 151.26 21.76Q150.33 22.17 149.18 22.17L149.18 22.17Q147.86 22.17 146.81 21.61Q145.76 21.05 145.16 20.05Q144.56 19.06 144.56 17.80ZM156.90 17.80L156.90 17.80Q156.90 16.55 157.50 15.55Q158.11 14.56 159.17 14.00Q160.23 13.43 161.57 13.43L161.57 13.43Q162.90 13.43 163.96 14.00Q165.02 14.56 165.63 15.55Q166.23 16.55 166.23 17.80L166.23 17.80Q166.23 19.05 165.63 20.04Q165.02 21.04 163.96 21.60Q162.90 22.17 161.57 22.17L161.57 22.17Q160.23 22.17 159.17 21.60Q158.11 21.04 157.50 20.04Q156.90 19.05 156.90 17.80ZM159.30 17.80L159.30 17.80Q159.30 18.51 159.60 19.05Q159.90 19.60 160.42 19.90Q160.93 20.20 161.57 20.20L161.57 20.20Q162.20 20.20 162.72 19.90Q163.23 19.60 163.53 19.05Q163.83 18.51 163.83 17.80L163.83 17.80Q163.83 17.09 163.53 16.54Q163.23 16 162.72 15.70Q162.20 15.40 161.57 15.40L161.57 15.40Q160.93 15.40 160.41 15.70Q159.90 16 159.60 16.54Q159.30 17.09 159.30 17.80ZM173.16 22L170.96 22L170.96 13.60L172.92 13.60L175.87 18.45L178.76 13.60L180.71 13.60L180.73 22L178.55 22L178.53 17.55L176.37 21.17L175.31 21.17L173.16 17.67L173.16 22ZM188.27 22L185.89 22L185.89 13.60L189.74 13.60Q190.87 13.60 191.71 13.98Q192.56 14.35 193.01 15.06Q193.47 15.76 193.47 16.71L193.47 16.71Q193.47 17.66 193.01 18.35Q192.56 19.05 191.71 19.42Q190.87 19.80 189.74 19.80L189.74 19.80L188.27 19.80L188.27 22ZM188.27 15.47L188.27 17.93L189.59 17.93Q190.32 17.93 190.69 17.61Q191.07 17.29 191.07 16.71L191.07 16.71Q191.07 16.12 190.69 15.80Q190.32 15.47 189.59 15.47L189.59 15.47L188.27 15.47ZM197.79 17.80L197.79 17.80Q197.79 16.55 198.40 15.55Q199.00 14.56 200.06 14.00Q201.13 13.43 202.46 13.43L202.46 13.43Q203.79 13.43 204.85 14.00Q205.91 14.56 206.52 15.55Q207.13 16.55 207.13 17.80L207.13 17.80Q207.13 19.05 206.52 20.04Q205.91 21.04 204.85 21.60Q203.79 22.17 202.46 22.17L202.46 22.17Q201.13 22.17 200.06 21.60Q199.00 21.04 198.40 20.04Q197.79 19.05 197.79 17.80ZM200.19 17.80L200.19 17.80Q200.19 18.51 200.49 19.05Q200.79 19.60 201.31 19.90Q201.82 20.20 202.46 20.20L202.46 20.20Q203.10 20.20 203.61 19.90Q204.13 19.60 204.43 19.05Q204.73 18.51 204.73 17.80L204.73 17.80Q204.73 17.09 204.43 16.54Q204.13 16 203.61 15.70Q203.10 15.40 202.46 15.40L202.46 15.40Q201.82 15.40 201.31 15.70Q200.79 16 200.49 16.54Q200.19 17.09 200.19 17.80ZM214.19 22L211.86 22L211.86 13.60L213.81 13.60L217.52 18.07L217.52 13.60L219.85 13.60L219.85 22L217.90 22L214.19 17.52L214.19 22ZM231.75 22L225.01 22L225.01 13.60L231.60 13.60L231.60 15.44L227.37 15.44L227.37 16.85L231.10 16.85L231.10 18.63L227.37 18.63L227.37 20.17L231.75 20.17L231.75 22ZM238.89 22L236.56 22L236.56 13.60L238.52 13.60L242.23 18.07L242.23 13.60L244.55 13.60L244.55 22L242.60 22L238.89 17.52L238.89 22ZM251.51 15.48L248.92 15.48L248.92 13.60L256.45 13.60L256.45 15.48L253.88 15.48L253.88 22L251.51 22L251.51 15.48ZM260.23 21.24L260.23 21.24L261.01 19.49Q261.57 19.86 262.32 20.09Q263.06 20.32 263.78 20.32L263.78 20.32Q265.15 20.32 265.15 19.64L265.15 19.64Q265.15 19.28 264.76 19.11Q264.37 18.93 263.51 18.74L263.51 18.74Q262.56 18.53 261.92 18.30Q261.29 18.06 260.83 17.55Q260.38 17.03 260.38 16.16L260.38 16.16Q260.38 15.39 260.80 14.77Q261.22 14.15 262.05 13.79Q262.89 13.43 264.09 13.43L264.09 13.43Q264.92 13.43 265.72 13.62Q266.53 13.80 267.15 14.17L267.15 14.17L266.41 15.93Q265.21 15.28 264.08 15.28L264.08 15.28Q263.37 15.28 263.05 15.49Q262.73 15.70 262.73 16.04L262.73 16.04Q262.73 16.37 263.11 16.54Q263.49 16.71 264.34 16.89L264.34 16.89Q265.31 17.10 265.94 17.33Q266.57 17.56 267.03 18.07Q267.49 18.58 267.49 19.46L267.49 19.46Q267.49 20.21 267.07 20.83Q266.65 21.44 265.81 21.80Q264.97 22.17 263.77 22.17L263.77 22.17Q262.75 22.17 261.79 21.92Q260.83 21.67 260.23 21.24Z" fill="#FFFFFF" x="65.76"/></svg>