<svg xmlns="http://www.w3.org/2000/svg" width="176.5" height="35" viewBox="0 0 176.5 35"><rect class="svg__rect" x="0" y="0" width="54.760000000000005" height="35" fill="#C0BABC"/><rect class="svg__rect" x="52.760000000000005" y="0" width="123.74" height="35" fill="#9D9A9B"/><path class="svg__text" d="M14.08 19.16L14.08 19.16L14.08 13.47L15.56 13.47L15.56 19.18Q15.56 20.03 15.99 20.48Q16.43 20.93 17.27 20.93L17.27 20.93Q18.98 20.93 18.98 19.13L18.98 19.13L18.98 13.47L20.46 13.47L20.46 19.17Q20.46 20.53 19.59 21.32Q18.72 22.12 17.27 22.12L17.27 22.12Q15.81 22.12 14.94 21.33Q14.08 20.55 14.08 19.16ZM24.59 19.42L24.59 19.42L26.08 19.42Q26.08 20.15 26.56 20.55Q27.04 20.95 27.93 20.95L27.93 20.95Q28.71 20.95 29.10 20.63Q29.49 20.32 29.49 19.80L29.49 19.80Q29.49 19.24 29.09 18.94Q28.70 18.63 27.66 18.32Q26.63 18.01 26.02 17.63L26.02 17.63Q24.86 16.90 24.86 15.72L24.86 15.72Q24.86 14.69 25.70 14.02Q26.54 13.35 27.88 13.35L27.88 13.35Q28.77 13.35 29.47 13.68Q30.17 14.01 30.56 14.61Q30.96 15.22 30.96 15.96L30.96 15.96L29.49 15.96Q29.49 15.29 29.07 14.91Q28.65 14.54 27.87 14.54L27.87 14.54Q27.14 14.54 26.74 14.85Q26.34 15.16 26.34 15.71L26.34 15.71Q26.34 16.18 26.77 16.50Q27.21 16.81 28.20 17.10Q29.20 17.40 29.80 17.78Q30.41 18.16 30.69 18.65Q30.97 19.13 30.97 19.79L30.97 19.79Q30.97 20.86 30.15 21.49Q29.33 22.12 27.93 22.12L27.93 22.12Q27.01 22.12 26.23 21.77Q25.46 21.43 25.02 20.83Q24.59 20.22 24.59 19.42ZM40.84 22L35.26 22L35.26 13.47L40.80 13.47L40.80 14.66L36.74 14.66L36.74 17.02L40.24 17.02L40.24 18.19L36.74 18.19L36.74 20.82L40.84 20.82L40.84 22Z" fill="#FFFFFF"/><path class="svg__text" d="M69.33 22L66.95 22L66.95 13.60L73.54 13.60L73.54 15.44L69.33 15.44L69.33 17.28L73.04 17.28L73.04 19.12L69.33 19.12L69.33 22ZM80.51 22L78.13 22L78.13 13.60L80.51 13.60L80.51 22ZM88.07 22L85.69 22L85.69 13.60L89.53 13.60Q90.67 13.60 91.51 13.98Q92.35 14.35 92.81 15.06Q93.26 15.76 93.26 16.71L93.26 16.71Q93.26 17.62 92.83 18.30Q92.41 18.98 91.62 19.36L91.62 19.36L93.43 22L90.88 22L89.36 19.77L88.07 19.77L88.07 22ZM88.07 15.47L88.07 17.93L89.38 17.93Q90.12 17.93 90.49 17.61Q90.86 17.29 90.86 16.71L90.86 16.71Q90.86 16.12 90.49 15.79Q90.12 15.47 89.38 15.47L89.38 15.47L88.07 15.47ZM104.79 22L98.05 22L98.05 13.60L104.64 13.60L104.64 15.44L100.40 15.44L100.40 16.85L104.14 16.85L104.14 18.63L100.40 18.63L100.40 20.17L104.79 20.17L104.79 22ZM109.01 21.24L109.01 21.24L109.79 19.49Q110.35 19.86 111.10 20.09Q111.84 20.32 112.56 20.32L112.56 20.32Q113.93 20.32 113.93 19.64L113.93 19.64Q113.93 19.28 113.54 19.11Q113.15 18.93 112.29 18.74L112.29 18.74Q111.34 18.53 110.70 18.30Q110.07 18.06 109.61 17.55Q109.16 17.03 109.16 16.16L109.16 16.16Q109.16 15.39 109.58 14.77Q110.00 14.15 110.83 13.79Q111.67 13.43 112.87 13.43L112.87 13.43Q113.70 13.43 114.51 13.62Q115.31 13.80 115.93 14.17L115.93 14.17L115.19 15.93Q113.99 15.28 112.86 15.28L112.86 15.28Q112.15 15.28 111.83 15.49Q111.51 15.70 111.51 16.04L111.51 16.04Q111.51 16.37 111.89 16.54Q112.28 16.71 113.13 16.89L113.13 16.89Q114.09 17.10 114.72 17.33Q115.35 17.56 115.81 18.07Q116.27 18.58 116.27 19.46L116.27 19.46Q116.27 20.21 115.85 20.83Q115.43 21.44 114.59 21.80Q113.75 22.17 112.55 22.17L112.55 22.17Q111.53 22.17 110.57 21.92Q109.61 21.67 109.01 21.24ZM122.64 15.48L120.06 15.48L120.06 13.60L127.58 13.60L127.58 15.48L125.01 15.48L125.01 22L122.64 22L122.64 15.48ZM131.52 17.80L131.52 17.80Q131.52 16.55 132.13 15.55Q132.73 14.56 133.79 14.00Q134.86 13.43 136.19 13.43L136.19 13.43Q137.52 13.43 138.58 14.00Q139.65 14.56 140.25 15.55Q140.86 16.55 140.86 17.80L140.86 17.80Q140.86 19.05 140.25 20.04Q139.65 21.04 138.58 21.60Q137.52 22.17 136.19 22.17L136.19 22.17Q134.86 22.17 133.79 21.60Q132.73 21.04 132.13 20.04Q131.52 19.05 131.52 17.80ZM133.92 17.80L133.92 17.80Q133.92 18.51 134.22 19.05Q134.52 19.60 135.04 19.90Q135.56 20.20 136.19 20.20L136.19 20.20Q136.83 20.20 137.34 19.90Q137.86 19.60 138.16 19.05Q138.46 18.51 138.46 17.80L138.46 17.80Q138.46 17.09 138.16 16.54Q137.86 16 137.34 15.70Q136.83 15.40 136.19 15.40L136.19 15.40Q135.55 15.40 135.04 15.70Q134.52 16 134.22 16.54Q133.92 17.09 133.92 17.80ZM147.97 22L145.59 22L145.59 13.60L149.43 13.60Q150.57 13.60 151.41 13.98Q152.25 14.35 152.71 15.06Q153.16 15.76 153.16 16.71L153.16 16.71Q153.16 17.62 152.73 18.30Q152.31 18.98 151.52 19.36L151.52 19.36L153.33 22L150.78 22L149.26 19.77L147.97 19.77L147.97 22ZM147.97 15.47L147.97 17.93L149.28 17.93Q150.02 17.93 150.39 17.61Q150.76 17.29 150.76 16.71L150.76 16.71Q150.76 16.12 150.39 15.79Q150.02 15.47 149.28 15.47L149.28 15.47L147.97 15.47ZM164.69 22L157.95 22L157.95 13.60L164.54 13.60L164.54 15.44L160.31 15.44L160.31 16.85L164.04 16.85L164.04 18.63L160.31 18.63L160.31 20.17L164.69 20.17L164.69 22Z" fill="#FFFFFF" x="65.76"/></svg>