<svg xmlns="http://www.w3.org/2000/svg" width="157.49" height="35" viewBox="0 0 157.49 35"><rect class="svg__rect" x="0" y="0" width="54.760000000000005" height="35" fill="#E97490"/><rect class="svg__rect" x="52.760000000000005" y="0" width="104.73" height="35" fill="#E9456D"/><path class="svg__text" d="M14.08 19.16L14.08 19.16L14.08 13.47L15.56 13.47L15.56 19.18Q15.56 20.03 15.99 20.48Q16.43 20.93 17.27 20.93L17.27 20.93Q18.98 20.93 18.98 19.13L18.98 19.13L18.98 13.47L20.46 13.47L20.46 19.17Q20.46 20.53 19.59 21.32Q18.72 22.12 17.27 22.12L17.27 22.12Q15.81 22.12 14.94 21.33Q14.08 20.55 14.08 19.16ZM24.59 19.42L24.59 19.42L26.08 19.42Q26.08 20.15 26.56 20.55Q27.04 20.95 27.93 20.95L27.93 20.95Q28.71 20.95 29.10 20.63Q29.49 20.32 29.49 19.80L29.49 19.80Q29.49 19.24 29.09 18.94Q28.70 18.63 27.66 18.32Q26.63 18.01 26.02 17.63L26.02 17.63Q24.86 16.90 24.86 15.72L24.86 15.72Q24.86 14.69 25.70 14.02Q26.54 13.35 27.88 13.35L27.88 13.35Q28.77 13.35 29.47 13.68Q30.17 14.01 30.56 14.61Q30.96 15.22 30.96 15.96L30.96 15.96L29.49 15.96Q29.49 15.29 29.07 14.91Q28.65 14.54 27.87 14.54L27.87 14.54Q27.14 14.54 26.74 14.85Q26.34 15.16 26.34 15.71L26.34 15.71Q26.34 16.18 26.77 16.50Q27.21 16.81 28.20 17.10Q29.20 17.40 29.80 17.78Q30.41 18.16 30.69 18.65Q30.97 19.13 30.97 19.79L30.97 19.79Q30.97 20.86 30.15 21.49Q29.33 22.12 27.93 22.12L27.93 22.12Q27.01 22.12 26.23 21.77Q25.46 21.43 25.02 20.83Q24.59 20.22 24.59 19.42ZM40.84 22L35.26 22L35.26 13.47L40.80 13.47L40.80 14.66L36.74 14.66L36.74 17.02L40.24 17.02L40.24 18.19L36.74 18.19L36.74 20.82L40.84 20.82L40.84 22Z" fill="#FFFFFF"/><path class="svg__text" d="M66.52 17.80L66.52 17.80Q66.52 16.54 67.12 15.54Q67.72 14.55 68.77 13.99Q69.82 13.43 71.14 13.43L71.14 13.43Q72.29 13.43 73.21 13.84Q74.14 14.25 74.75 15.02L74.75 15.02L73.24 16.39Q72.43 15.40 71.26 15.40L71.26 15.40Q70.57 15.40 70.04 15.70Q69.51 16 69.21 16.54Q68.92 17.09 68.92 17.80L68.92 17.80Q68.92 18.51 69.21 19.05Q69.51 19.60 70.04 19.90Q70.57 20.20 71.26 20.20L71.26 20.20Q72.43 20.20 73.24 19.22L73.24 19.22L74.75 20.58Q74.14 21.35 73.22 21.76Q72.29 22.17 71.14 22.17L71.14 22.17Q69.82 22.17 68.77 21.61Q67.72 21.05 67.12 20.05Q66.52 19.06 66.52 17.80ZM81.41 18.95L78.21 13.60L80.72 13.60L82.71 16.94L84.70 13.60L87.00 13.60L83.79 18.99L83.79 22L81.41 22L81.41 18.95ZM93.47 22L91.09 22L91.09 13.60L94.93 13.60Q96.07 13.60 96.91 13.98Q97.75 14.35 98.21 15.06Q98.66 15.76 98.66 16.71L98.66 16.71Q98.66 17.66 98.21 18.35Q97.75 19.05 96.91 19.42Q96.07 19.80 94.93 19.80L94.93 19.80L93.47 19.80L93.47 22ZM93.47 15.47L93.47 17.93L94.79 17.93Q95.52 17.93 95.89 17.61Q96.26 17.29 96.26 16.71L96.26 16.71Q96.26 16.12 95.89 15.80Q95.52 15.47 94.79 15.47L94.79 15.47L93.47 15.47ZM105.80 22L103.42 22L103.42 13.60L107.26 13.60Q108.40 13.60 109.24 13.98Q110.08 14.35 110.54 15.06Q110.99 15.76 110.99 16.71L110.99 16.71Q110.99 17.62 110.57 18.30Q110.14 18.98 109.35 19.36L109.35 19.36L111.16 22L108.61 22L107.09 19.77L105.80 19.77L105.80 22ZM105.80 15.47L105.80 17.93L107.11 17.93Q107.85 17.93 108.22 17.61Q108.59 17.29 108.59 16.71L108.59 16.71Q108.59 16.12 108.22 15.79Q107.85 15.47 107.11 15.47L107.11 15.47L105.80 15.47ZM122.52 22L115.78 22L115.78 13.60L122.37 13.60L122.37 15.44L118.14 15.44L118.14 16.85L121.87 16.85L121.87 18.63L118.14 18.63L118.14 20.17L122.52 20.17L122.52 22ZM126.74 21.24L126.74 21.24L127.52 19.49Q128.08 19.86 128.83 20.09Q129.57 20.32 130.29 20.32L130.29 20.32Q131.66 20.32 131.66 19.64L131.66 19.64Q131.66 19.28 131.28 19.11Q130.89 18.93 130.02 18.74L130.02 18.74Q129.07 18.53 128.43 18.30Q127.80 18.06 127.34 17.55Q126.89 17.03 126.89 16.16L126.89 16.16Q126.89 15.39 127.31 14.77Q127.73 14.15 128.56 13.79Q129.40 13.43 130.60 13.43L130.60 13.43Q131.43 13.43 132.24 13.62Q133.04 13.80 133.66 14.17L133.66 14.17L132.92 15.93Q131.72 15.28 130.59 15.28L130.59 15.28Q129.88 15.28 129.56 15.49Q129.24 15.70 129.24 16.04L129.24 16.04Q129.24 16.37 129.62 16.54Q130.01 16.71 130.86 16.89L130.86 16.89Q131.82 17.10 132.45 17.33Q133.08 17.56 133.54 18.07Q134.00 18.58 134.00 19.46L134.00 19.46Q134.00 20.21 133.58 20.83Q133.16 21.44 132.32 21.80Q131.48 22.17 130.28 22.17L130.28 22.17Q129.26 22.17 128.30 21.92Q127.34 21.67 126.74 21.24ZM137.99 21.24L137.99 21.24L138.77 19.49Q139.33 19.86 140.08 20.09Q140.82 20.32 141.54 20.32L141.54 20.32Q142.91 20.32 142.91 19.64L142.91 19.64Q142.91 19.28 142.53 19.11Q142.14 18.93 141.27 18.74L141.27 18.74Q140.32 18.53 139.68 18.30Q139.05 18.06 138.59 17.55Q138.14 17.03 138.14 16.16L138.14 16.16Q138.14 15.39 138.56 14.77Q138.98 14.15 139.81 13.79Q140.65 13.43 141.85 13.43L141.85 13.43Q142.68 13.43 143.49 13.62Q144.29 13.80 144.91 14.17L144.91 14.17L144.17 15.93Q142.97 15.28 141.84 15.28L141.84 15.28Q141.13 15.28 140.81 15.49Q140.49 15.70 140.49 16.04L140.49 16.04Q140.49 16.37 140.87 16.54Q141.26 16.71 142.11 16.89L142.11 16.89Q143.07 17.10 143.70 17.33Q144.33 17.56 144.79 18.07Q145.25 18.58 145.25 19.46L145.25 19.46Q145.25 20.21 144.83 20.83Q144.41 21.44 143.57 21.80Q142.73 22.17 141.53 22.17L141.53 22.17Q140.51 22.17 139.55 21.92Q138.59 21.67 137.99 21.24Z" fill="#FFFFFF" x="65.76"/></svg>