<svg xmlns="http://www.w3.org/2000/svg" width="211.39" height="35" viewBox="0 0 211.39 35"><rect class="svg__rect" x="0" y="0" width="54.760000000000005" height="35" fill="#AF24AD"/><rect class="svg__rect" x="52.760000000000005" y="0" width="158.63" height="35" fill="#730071"/><path class="svg__text" d="M14.08 19.16L14.08 19.16L14.08 13.47L15.56 13.47L15.56 19.18Q15.56 20.03 15.99 20.48Q16.43 20.93 17.27 20.93L17.27 20.93Q18.98 20.93 18.98 19.13L18.98 19.13L18.98 13.47L20.46 13.47L20.46 19.17Q20.46 20.53 19.59 21.32Q18.72 22.12 17.27 22.12L17.27 22.12Q15.81 22.12 14.94 21.33Q14.08 20.55 14.08 19.16ZM24.59 19.42L24.59 19.42L26.08 19.42Q26.08 20.15 26.56 20.55Q27.04 20.95 27.93 20.95L27.93 20.95Q28.71 20.95 29.10 20.63Q29.49 20.32 29.49 19.80L29.49 19.80Q29.49 19.24 29.09 18.94Q28.70 18.63 27.66 18.32Q26.63 18.01 26.02 17.63L26.02 17.63Q24.86 16.90 24.86 15.72L24.86 15.72Q24.86 14.69 25.70 14.02Q26.54 13.35 27.88 13.35L27.88 13.35Q28.77 13.35 29.47 13.68Q30.17 14.01 30.56 14.61Q30.96 15.22 30.96 15.96L30.96 15.96L29.49 15.96Q29.49 15.29 29.07 14.91Q28.65 14.54 27.87 14.54L27.87 14.54Q27.14 14.54 26.74 14.85Q26.34 15.16 26.34 15.71L26.34 15.71Q26.34 16.18 26.77 16.50Q27.21 16.81 28.20 17.10Q29.20 17.40 29.80 17.78Q30.41 18.16 30.69 18.65Q30.97 19.13 30.97 19.79L30.97 19.79Q30.97 20.86 30.15 21.49Q29.33 22.12 27.93 22.12L27.93 22.12Q27.01 22.12 26.23 21.77Q25.46 21.43 25.02 20.83Q24.59 20.22 24.59 19.42ZM40.84 22L35.26 22L35.26 13.47L40.80 13.47L40.80 14.66L36.74 14.66L36.74 17.02L40.24 17.02L40.24 18.19L36.74 18.19L36.74 20.82L40.84 20.82L40.84 22Z" fill="#FFFFFF"/><path class="svg__text" d="M69.33 22L66.95 22L66.95 13.60L70.79 13.60Q71.93 13.60 72.77 13.98Q73.61 14.35 74.07 15.06Q74.52 15.76 74.52 16.71L74.52 16.71Q74.52 17.62 74.10 18.30Q73.67 18.98 72.88 19.36L72.88 19.36L74.69 22L72.15 22L70.62 19.77L69.33 19.77L69.33 22ZM69.33 15.47L69.33 17.93L70.65 17.93Q71.38 17.93 71.75 17.61Q72.12 17.29 72.12 16.71L72.12 16.71Q72.12 16.12 71.75 15.79Q71.38 15.47 70.65 15.47L70.65 15.47L69.33 15.47ZM86.06 22L79.31 22L79.31 13.60L85.90 13.60L85.90 15.44L81.67 15.44L81.67 16.85L85.40 16.85L85.40 18.63L81.67 18.63L81.67 20.17L86.06 20.17L86.06 22ZM92.28 22L89.85 22L93.56 13.60L95.90 13.60L99.62 22L97.15 22L96.49 20.37L92.94 20.37L92.28 22ZM94.72 15.93L93.63 18.61L95.79 18.61L94.72 15.93ZM103.35 17.80L103.35 17.80Q103.35 16.54 103.94 15.54Q104.54 14.55 105.59 13.99Q106.65 13.43 107.96 13.43L107.96 13.43Q109.12 13.43 110.04 13.84Q110.96 14.25 111.58 15.02L111.58 15.02L110.07 16.39Q109.25 15.40 108.09 15.40L108.09 15.40Q107.40 15.40 106.87 15.70Q106.33 16 106.04 16.54Q105.74 17.09 105.74 17.80L105.74 17.80Q105.74 18.51 106.04 19.05Q106.33 19.60 106.87 19.90Q107.40 20.20 108.09 20.20L108.09 20.20Q109.25 20.20 110.07 19.22L110.07 19.22L111.58 20.58Q110.97 21.35 110.04 21.76Q109.12 22.17 107.96 22.17L107.96 22.17Q106.65 22.17 105.59 21.61Q104.54 21.05 103.94 20.05Q103.35 19.06 103.35 17.80ZM117.91 15.48L115.32 15.48L115.32 13.60L122.85 13.60L122.85 15.48L120.28 15.48L120.28 22L117.91 22L117.91 15.48ZM130.46 19.46L126.95 19.46L126.95 17.71L130.46 17.71L130.46 19.46ZM134.77 21.24L134.77 21.24L135.55 19.49Q136.11 19.86 136.86 20.09Q137.60 20.32 138.32 20.32L138.32 20.32Q139.69 20.32 139.69 19.64L139.69 19.64Q139.69 19.28 139.30 19.11Q138.91 18.93 138.05 18.74L138.05 18.74Q137.10 18.53 136.46 18.30Q135.82 18.06 135.37 17.55Q134.92 17.03 134.92 16.16L134.92 16.16Q134.92 15.39 135.34 14.77Q135.75 14.15 136.59 13.79Q137.42 13.43 138.63 13.43L138.63 13.43Q139.46 13.43 140.26 13.62Q141.07 13.80 141.68 14.17L141.68 14.17L140.95 15.93Q139.75 15.28 138.62 15.28L138.62 15.28Q137.91 15.28 137.59 15.49Q137.27 15.70 137.27 16.04L137.27 16.04Q137.27 16.37 137.65 16.54Q138.03 16.71 138.88 16.89L138.88 16.89Q139.84 17.10 140.47 17.33Q141.10 17.56 141.57 18.07Q142.03 18.58 142.03 19.46L142.03 19.46Q142.03 20.21 141.61 20.83Q141.19 21.44 140.35 21.80Q139.51 22.17 138.31 22.17L138.31 22.17Q137.29 22.17 136.33 21.92Q135.37 21.67 134.77 21.24ZM153.35 22L146.61 22L146.61 13.60L153.20 13.60L153.20 15.44L148.96 15.44L148.96 16.85L152.69 16.85L152.69 18.63L148.96 18.63L148.96 20.17L153.35 20.17L153.35 22ZM164.54 22L158.15 22L158.15 13.60L160.53 13.60L160.53 20.11L164.54 20.11L164.54 22ZM175.70 22L168.96 22L168.96 13.60L175.55 13.60L175.55 15.44L171.32 15.44L171.32 16.85L175.05 16.85L175.05 18.63L171.32 18.63L171.32 20.17L175.70 20.17L175.70 22ZM180.08 17.80L180.08 17.80Q180.08 16.54 180.68 15.54Q181.28 14.55 182.33 13.99Q183.38 13.43 184.70 13.43L184.70 13.43Q185.85 13.43 186.78 13.84Q187.70 14.25 188.31 15.02L188.31 15.02L186.80 16.39Q185.99 15.40 184.82 15.40L184.82 15.40Q184.14 15.40 183.60 15.70Q183.07 16 182.77 16.54Q182.48 17.09 182.48 17.80L182.48 17.80Q182.48 18.51 182.77 19.05Q183.07 19.60 183.60 19.90Q184.14 20.20 184.82 20.20L184.82 20.20Q185.99 20.20 186.80 19.22L186.80 19.22L188.31 20.58Q187.70 21.35 186.78 21.76Q185.85 22.17 184.70 22.17L184.70 22.17Q183.38 22.17 182.33 21.61Q181.28 21.05 180.68 20.05Q180.08 19.06 180.08 17.80ZM194.64 15.48L192.06 15.48L192.06 13.60L199.58 13.60L199.58 15.48L197.01 15.48L197.01 22L194.64 22L194.64 15.48Z" fill="#FFFFFF" x="65.76"/></svg>